<svg xmlns="http://www.w3.org/2000/svg" viewBox="0 0 1200 1180" font-family="Inter, ui-sans-serif, system-ui, -apple-system, Segoe UI, sans-serif">
  <defs>
    <linearGradient id="tok" x1="0" y1="0" x2="0" y2="1">
      <stop offset="0" stop-color="#2b1c11"/><stop offset="1" stop-color="#231610"/>
    </linearGradient>
    <linearGradient id="hot" x1="0" y1="0" x2="1" y2="0">
      <stop offset="0" stop-color="#e0905a"/><stop offset="1" stop-color="#d98264"/>
    </linearGradient>
    <linearGradient id="out" x1="0" y1="0" x2="0" y2="1">
      <stop offset="0" stop-color="#2b2415"/><stop offset="1" stop-color="#221b12"/>
    </linearGradient>
    <marker id="arr" viewBox="0 0 10 10" refX="8" refY="5" markerWidth="7" markerHeight="7" orient="auto-start-reverse">
      <path d="M0,0 L10,5 L0,10 z" fill="#c4a68a"/>
    </marker>
    <marker id="arrGold" viewBox="0 0 10 10" refX="8" refY="5" markerWidth="7" markerHeight="7" orient="auto-start-reverse">
      <path d="M0,0 L10,5 L0,10 z" fill="#f0b763"/>
    </marker>
    <marker id="arrEmber" viewBox="0 0 10 10" refX="8" refY="5" markerWidth="7" markerHeight="7" orient="auto-start-reverse">
      <path d="M0,0 L10,5 L0,10 z" fill="#e0905a"/>
    </marker>
    <style>
      .mono { font-family: ui-monospace, SFMono-Regular, Menlo, Consolas, monospace; }
      .h    { fill:#f0b763; font-size:12px; font-weight:800; letter-spacing:.16em; }
      .t    { fill:#fff3df; font-size:14px; font-weight:600; }
      .s    { fill:#c4a68a; font-size:11.5px; }
      .m    { fill:#fff3df; font-size:13px; font-weight:600; }
      .lane { fill:rgba(240,183,99,.03); stroke:rgba(226,177,116,.2); stroke-width:1; rx:18; }
      .box  { fill:url(#tok); stroke:rgba(226,177,116,.32); stroke-width:1.2; rx:12; }
      .stage{ fill:#1c1209; stroke:rgba(240,183,99,.28); stroke-width:1.2; rx:10; }
      .wire { stroke:#c4a68a; stroke-width:1.4; fill:none; marker-end:url(#arr); }
      .wireG{ stroke:#f0b763; stroke-width:1.6; fill:none; marker-end:url(#arrGold); }
      .wireE{ stroke:#e0905a; stroke-width:1.6; fill:none; marker-end:url(#arrEmber); }
    </style>
  </defs>

  <!-- background -->
  <rect width="1200" height="1180" fill="#120c08"/>
  <rect width="1200" height="1180" fill="none" stroke="none"/>

  <!-- title -->
  <text class="mono h" x="40" y="52">TREEBEARD / INTERNAL ROUTING</text>
  <text x="40" y="90" fill="#fff3df" font-size="30" font-weight="800" letter-spacing="-.02em">Top-8 of 256 experts — and how Treebeard reschedules it</text>
  <text class="s" x="40" y="116">Qwen3.6-35B-A3B · per token · ×40 decoder layers · semantics preserved bit-identical, scheduling changed</text>

  <!-- LANE 1: model semantics -->
  <rect class="lane" x="24" y="140" width="1152" height="620"/>
  <text class="mono h" x="46" y="174">1 · MODEL SEMANTICS — QWEN CHOOSES</text>

  <!-- token state box -->
  <rect class="box" x="46" y="192" width="270" height="72"/>
  <text class="t mono" x="62" y="222">x_t  ∈  R^2048</text>
  <text class="s" x="62" y="246">normalized hidden state</text>

  <!-- shared expert box (right) -->
  <rect class="box" x="884" y="192" width="270" height="72"/>
  <text class="t" x="900" y="216">Shared expert — always on</text>
  <text class="s" x="900" y="238">sigmoid gate σ(w_s^T x_t)</text>
  <text class="s" x="900" y="256">does not compete in top-8</text>

  <!-- router stages -->
  <rect class="stage" x="40" y="304" width="262" height="66"/>
  <text class="m mono" x="56" y="332">z = W_r^T x_t  ∈  R^256</text>
  <text class="s" x="56" y="354">router projection</text>

  <rect class="stage" x="334" y="304" width="252" height="66"/>
  <text class="m mono" x="350" y="332">p = softmax(z)</text>
  <text class="s" x="350" y="354">probabilities over 256</text>

  <rect class="stage" x="618" y="304" width="256" height="66"/>
  <text class="m mono" x="634" y="332">TopK(p, 8)</text>
  <text class="s" x="634" y="354">ids + probabilities</text>

  <rect class="stage" x="906" y="304" width="254" height="66"/>
  <text class="m mono" x="922" y="332">α_i = p_i / Σ_I p</text>
  <text class="s" x="922" y="354">renormalize the 8</text>

  <!-- wires between router stages -->
  <path class="wire" d="M302,337 H334"/>
  <path class="wire" d="M586,337 H618"/>
  <path class="wire" d="M874,337 H906"/>

  <!-- wires from x_t to router + shared -->
  <path class="wire" d="M181,264 V337 H302" marker-end="none"/>
  <path class="wire" d="M181,264 V337" />
  <path class="wire" d="M250,228 H884"/>

  <!-- simplification callout -->
  <rect x="334" y="392" width="540" height="42" fill="rgba(216,173,82,.07)" stroke="rgba(216,173,82,.3)" stroke-dasharray="4 3"/>
  <text class="s" x="350" y="418" fill="#d8ad52">softmax is monotone ⇒ top-8 of p = top-8 of z; the global softmax denominator cancels in α</text>

  <!-- expert bank -->
  <g>
    <!-- dim tiles row 1 -->
    <g fill="#241a12" stroke="rgba(226,177,116,.18)">
      <rect x="44"  y="456" width="46" height="30"/><rect x="98"  y="456" width="46" height="30"/><rect x="152" y="456" width="46" height="30"/>
      <rect x="260" y="456" width="46" height="30"/><rect x="314" y="456" width="46" height="30"/><rect x="368" y="456" width="46" height="30"/>
      <rect x="476" y="456" width="46" height="30"/><rect x="530" y="456" width="46" height="30"/><rect x="584" y="456" width="46" height="30"/>
      <rect x="692" y="456" width="46" height="30"/><rect x="746" y="456" width="46" height="30"/><rect x="800" y="456" width="46" height="30"/>
      <rect x="908" y="456" width="46" height="30"/><rect x="962" y="456" width="46" height="30"/><rect x="1016" y="456" width="46" height="30"/>
      <rect x="1124" y="456" width="30" height="30"/>
    </g>
    <!-- dim tiles row 2 -->
    <g fill="#241a12" stroke="rgba(226,177,116,.18)">
      <rect x="44"  y="492" width="46" height="30"/><rect x="98"  y="492" width="46" height="30"/><rect x="152" y="492" width="46" height="30"/>
      <rect x="260" y="492" width="46" height="30"/><rect x="314" y="492" width="46" height="30"/><rect x="368" y="492" width="46" height="30"/>
      <rect x="476" y="492" width="46" height="30"/><rect x="530" y="492" width="46" height="30"/><rect x="584" y="492" width="46" height="30"/>
      <rect x="692" y="492" width="46" height="30"/><rect x="746" y="492" width="46" height="30"/><rect x="800" y="492" width="46" height="30"/>
      <rect x="908" y="492" width="46" height="30"/><rect x="962" y="492" width="46" height="30"/><rect x="1016" y="492" width="46" height="30"/>
    </g>
    <!-- hot selected tiles -->
    <g fill="url(#hot)" stroke="#f0c9a8" stroke-width="1">
      <rect x="206" y="456" width="46" height="30"/><rect x="422" y="456" width="46" height="30"/><rect x="638" y="456" width="46" height="30"/><rect x="854" y="456" width="46" height="30"/>
      <rect x="152" y="492" width="46" height="30"/><rect x="368" y="492" width="46" height="30"/><rect x="692" y="492" width="46" height="30"/><rect x="1070" y="492" width="46" height="30"/>
    </g>
    <!-- weight labels on hot tiles -->
    <g class="mono" font-size="10" fill="#1c1209" font-weight="700" text-anchor="middle">
      <text x="229" y="475">.18</text><text x="445" y="475">.15</text><text x="661" y="475">.14</text><text x="877" y="475">.12</text>
      <text x="175" y="511">.11</text><text x="391" y="511">.10</text><text x="715" y="511">.08</text><text x="1093" y="511">.07</text>
    </g>
    <text class="s" x="44" y="446">bank of 256 routed experts — 8 selected per token (3.125% active)</text>
    <!-- SwiGLU caption -->
    <text class="s mono" x="44" y="544">each expert: SwiGLU MLP 2048 → 512 → 2048 · only the 8 selected experts run · weighted sum y_routed = Σ α_i e_i(x_t)</text>
  </g>

  <!-- wires: TopK/renorm down to bank -->
  <path class="wireE" d="M746,370 V392 H229 V456"/>
  <path class="wireE" d="M1033,370 V392 H877 V456"/>
  <path class="wireE" d="M661,370 V456"/>
  <path class="wireE" d="M391,414 V492"/>
  <path class="wireE" d="M715,414 V492"/>

  <!-- merge + output -->
  <rect class="box" x="46" y="592" width="390" height="58" style="fill:url(#out); stroke:rgba(216,173,82,.4)"/>
  <text class="t mono" x="62" y="618">y = y_routed + σ(w_s^T x_t) · y_shared</text>
  <text class="s" x="62" y="638">merge branches</text>

  <rect class="box" x="486" y="592" width="300" height="58" style="fill:url(#out); stroke:rgba(216,173,82,.4)"/>
  <text class="t mono" x="502" y="618">+ FFN residual</text>
  <text class="s" x="502" y="638">next block state → next layer</text>

  <path class="wireG" d="M436,621 H486"/>
  <path class="wireG" d="M600,522 V560 H330 V592"/>
  <path class="wireG" d="M1019,264 V560 H390 V592" style="stroke:#c4a68a; stroke-width:1.3; fill:none" marker-end="url(#arr)"/>

  <!-- invariant pill -->
  <rect x="826" y="592" width="328" height="58" fill="rgba(217,130,100,.07)" stroke="rgba(217,130,100,.35)" stroke-dasharray="4 3" rx="10"/>
  <text class="s" x="842" y="616" fill="#e69a7d">no grouping · no selection bias · no capacity limit</text>
  <text class="s" x="842" y="636" fill="#e69a7d">· no token dropping</text>

  <!-- LANE 2: treebeard scheduling -->
  <rect class="lane" x="24" y="790" width="1152" height="330" style="stroke:rgba(217,130,100,.28)"/>
  <text class="mono h" x="46" y="824" fill="#e69a7d">2 · TREEBEARD SCHEDULING — AFTER THE DECISION</text>
  <text class="s" x="46" y="846">inputs are already fixed: expert ids [T,8] + weights [T,8]. None of the math above is re-derived.</text>

  <rect class="stage" x="40" y="870" width="340" height="76"/>
  <text class="m" x="56" y="896">Contiguous expert-major plan</text>
  <text class="s" x="56" y="918">token/expert pairs bucketed by expert,</text>
  <text class="s" x="56" y="936">weights fetched once per expert</text>

  <rect class="stage" x="420" y="870" width="340" height="76"/>
  <text class="m mono" x="436" y="896">one stable argsort — T×8</text>
  <text class="s" x="436" y="918">gives the ids→row permutation</text>
  <text class="s" x="436" y="936">on device, no host readback</text>

  <rect class="stage" x="800" y="870" width="354" height="76"/>
  <text class="m mono" x="816" y="896">fused argsort (expert, weight)</text>
  <text class="s" x="816" y="918">emits permutation + row scales together</text>
  <text class="s" x="816" y="936">one kernel replaces two</text>

  <path class="wireG" d="M380,908 H420"/>
  <path class="wireG" d="M760,908 H800"/>

  <!-- backends -->
  <rect class="box" x="40" y="984" width="340" height="72"/>
  <text class="mono h" x="56" y="1010" font-size="10">INTEL SYCL</text>
  <text class="s" x="56" y="1030">bucket ≥4 tokens/pass · shape-aware workgroups</text>
  <text class="s" x="56" y="1048">(1 subgroup gate/up, 4 for the down proj)</text>

  <rect class="box" x="420" y="984" width="340" height="72"/>
  <text class="mono h" x="436" y="1010" font-size="10" fill="#e69a7d">NVIDIA CUDA</text>
  <text class="s" x="436" y="1030">stays on MMVQ/MMQ · Blackwell direct 12-col path</text>
  <text class="s" x="436" y="1048">(12 columns = tokens, not experts)</text>

  <rect class="box" x="800" y="984" width="354" height="72" style="stroke:rgba(216,173,82,.45)"/>
  <text class="mono h" x="816" y="1010" font-size="10">INVARIANT</text>
  <text class="s" x="816" y="1030">no rescore / replace / drop / add —</text>
  <text class="s" x="816" y="1048">bit-identical outputs, cheaper schedule</text>

  <path class="wireG" d="M210,946 V984"/>
  <path class="wireG" d="M590,946 V984"/>
  <path class="wireG" d="M977,946 V984"/>

  <!-- footer -->
  <text class="s" x="40" y="1150" fill="#90735c">Treebeard 0.1.0-rc.3 · Intel SYCL + NVIDIA CUDA · source-grounded — newjordan.github.io/treebeard/moe-routing.html</text>
</svg>
